<svg xmlns="http://www.w3.org/2000/svg"><symbol id="list" viewBox="0 0 20 14" fill="none"><path d="M6.583 1.5H18.5M6.583 7H18.5M6.583 12.5H18.5M2 1.5h.01M2 7h.01M2 12.5h.01" stroke="currentColor" stroke-width="3" stroke-linecap="round" stroke-linejoin="round"/></symbol><symbol id="search" viewBox="0 0 24 24" fill="none"><path d="M11 19a8 8 0 1 0 0-16 8 8 0 0 0 0 16ZM21 21l-4.35-4.35" stroke="currentColor" stroke-width="2" stroke-linecap="round" stroke-linejoin="round"/></symbol><symbol id="user" viewBox="0 0 24 24" fill="none"><path d="M22 22v-2.222c0-1.179-.527-2.31-1.465-3.143-.937-.833-2.209-1.302-3.535-1.302H7c-1.326 0-2.598.469-3.536 1.302C2.527 17.47 2 18.6 2 19.778V22M12 10.889c2.761 0 5-1.99 5-4.445C17 3.99 14.761 2 12 2S7 3.99 7 6.444C7 8.9 9.239 10.89 12 10.89Z" stroke="currentColor" stroke-width="3" stroke-linecap="round" stroke-linejoin="round"/></symbol><symbol id="cart" viewBox="0 0 24 23" fill="none"><path d="M19.273 20.59a.91.91 0 1 0 0-1.817.91.91 0 0 0 0 1.818ZM9.272 20.59a.91.91 0 1 0 0-1.817.91.91 0 0 0 0 1.818ZM2 1.5h3.636l2.437 12.173a1.818 1.818 0 0 0 1.818 1.463h8.836a1.818 1.818 0 0 0 1.819-1.463L22 6.045H6.545" stroke="currentColor" stroke-width="3" stroke-linecap="round" stroke-linejoin="round"/></symbol><symbol id="cross" viewBox="0 0 20 20" fill="none"><path d="M18 2 2 18M2 2l16 16" stroke="currentColor" stroke-width="3" stroke-linecap="round" stroke-linejoin="round"/></symbol></svg>