<svg width="30" height="30" fill="none" xmlns="http://www.w3.org/2000/svg"><path d="M25.15 5.122a6.334 6.334 0 0 0-2.05-1.57A5.622 5.622 0 0 0 20.683 3c-.83 0-1.65.187-2.417.551a6.334 6.334 0 0 0-2.05 1.57L15 6.518l-1.217-1.395C12.598 3.764 10.992 3 9.316 3c-1.675 0-3.281.763-4.466 2.12C3.665 6.48 3 8.322 3 10.243c0 1.921.665 3.763 1.85 5.121l1.217 1.396L15 27l8.932-10.241 1.217-1.396a7.387 7.387 0 0 0 1.37-2.35c.318-.878.481-1.82.481-2.77 0-.952-.163-1.893-.481-2.772a7.388 7.388 0 0 0-1.37-2.35v0Z" stroke="#fff" stroke-width="5" stroke-linecap="round" stroke-linejoin="round"/></svg>